<svg width="50" height="64" viewBox="0 0 50 64" fill="none" xmlns="http://www.w3.org/2000/svg">
<mask id="path-1-inside-1_281_2" fill="white">
<path d="M0 48.9106V29.6585H22.6406C26.7674 28.7509 34.7738 24.483 35.3616 14.5691H14.8335L0 0H22.6406C26.8911 0.607046 35.3922 4.05854 35.3922 13.0081C35.4023 13.5433 35.3916 14.0636 35.3616 14.5691H38.515C42.5921 15.7832 49.2857 19.2 50 29.6585C50 38.1919 42.3318 42.4932 38.515 44.2276H14.8335V64L0 48.9106Z"/>
</mask>
<path d="M0 48.9106H-30C-30 56.7782 -26.9093 64.3309 -21.3939 69.9416L0 48.9106ZM0 29.6585V-0.341463C-16.5685 -0.341463 -30 13.09 -30 29.6585H0ZM22.6406 29.6585V59.6585C24.8076 59.6585 26.9683 59.4237 29.0847 58.9583L22.6406 29.6585ZM35.3922 13.0081H5.39219C5.39219 13.1968 5.39397 13.3856 5.39753 13.5742L35.3922 13.0081ZM22.6406 0L26.8821 -29.6987C25.4771 -29.8993 24.0598 -30 22.6406 -30V0ZM0 0V-30C-12.183 -30 -23.1561 -22.6322 -27.7677 -11.3558C-32.3793 -0.0793258 -29.7134 12.8662 -21.0216 21.4031L0 0ZM14.8335 14.5691L-6.18811 35.9722C-0.578319 41.482 6.97043 44.5691 14.8335 44.5691V14.5691ZM38.515 14.5691L47.0771 -14.1831C44.2984 -15.0106 41.4144 -15.4309 38.515 -15.4309V14.5691ZM50 29.6585H80C80 28.9766 79.9767 28.2948 79.9303 27.6144L50 29.6585ZM38.515 44.2276V74.2276C42.7965 74.2276 47.0283 73.3112 50.9262 71.54L38.515 44.2276ZM14.8335 44.2276V14.2276C-1.73505 14.2276 -15.1665 27.6591 -15.1665 44.2276H14.8335ZM14.8335 64L-6.56037 85.031C1.97862 93.7173 14.9221 96.3784 26.1954 91.7652C37.4686 87.1521 44.8335 76.1806 44.8335 64H14.8335ZM30 48.9106V29.6585H-30V48.9106H30ZM0 59.6585H22.6406V-0.341463H0V59.6585ZM29.0847 58.9583C40.3965 56.4704 63.6174 44.8729 65.309 16.3449L5.41423 12.7933C5.62893 9.17268 7.50926 5.75363 9.85203 3.56572C10.8477 2.6359 11.8213 2.0126 12.6695 1.5805C13.4583 1.17868 14.5856 0.713123 16.1965 0.358819L29.0847 58.9583ZM65.309 16.3448C65.3861 15.0453 65.4114 13.7438 65.3868 12.442L5.39753 13.5742C5.39317 13.3429 5.39713 13.0818 5.41423 12.7934L65.309 16.3448ZM65.3922 13.0081C65.3922 -2.50125 57.4636 -13.7723 48.9797 -20.3429C41.4163 -26.2005 33.0583 -28.8166 26.8821 -29.6987L18.3991 29.6987C16.4734 29.4236 14.4912 28.8368 12.241 27.0941C10.8855 26.0443 9.08521 24.2772 7.62757 21.5902C6.09218 18.7598 5.39219 15.7322 5.39219 13.0081H65.3922ZM22.6406 -30H0V30H22.6406V-30ZM-21.0216 21.4031L-6.18811 35.9722L35.8551 -6.83398L21.0216 -21.4031L-21.0216 21.4031ZM14.8335 44.5691H35.3616V-15.4309H14.8335V44.5691ZM35.3616 44.5691H38.515V-15.4309H35.3616V44.5691ZM29.953 43.3213C29.1449 43.0807 26.6319 42.2306 24.1168 39.6701C22.7968 38.3263 21.7209 36.7487 20.9916 35.0813C20.2731 33.4386 20.1035 32.1967 20.0697 31.7027L79.9303 27.6144C79.1149 15.6759 74.5038 5.34437 66.9203 -2.37576C59.8605 -9.56281 51.9622 -12.7284 47.0771 -14.1831L29.953 43.3213ZM20 29.6585C20 27.1235 20.607 24.5906 21.6704 22.3637C22.675 20.2598 23.8655 18.8795 24.6339 18.1224C25.9101 16.865 26.7301 16.6308 26.1039 16.9153L50.9262 71.54C54.1168 70.0901 60.6792 66.838 66.7437 60.863C73.2562 54.4467 80 43.9619 80 29.6585H20ZM38.515 14.2276H14.8335V74.2276H38.515V14.2276ZM-15.1665 44.2276V64H44.8335V44.2276H-15.1665ZM36.2274 42.969L21.3939 27.8796L-21.3939 69.9416L-6.56037 85.031L36.2274 42.969Z" fill="white" mask="url(#path-1-inside-1_281_2)"/>
</svg>
