<svg width="42" height="39" viewBox="0 0 42 39" fill="none" xmlns="http://www.w3.org/2000/svg">
<path d="M40.9126 1.4947C40.5359 1.16932 40.0773 0.953227 39.5865 0.869842C39.0958 0.786457 38.5916 0.838955 38.1286 1.02165L2.08229 15.1828C1.53249 15.3988 1.06742 15.787 0.756654 16.2893C0.445893 16.7916 0.306157 17.3811 0.358357 17.9695C0.410557 18.5579 0.651885 19.1135 1.04623 19.5533C1.44057 19.9931 1.96673 20.2933 2.54596 20.4091L12.0159 22.3029V34.0593C12.0153 34.6004 12.1754 35.1295 12.4757 35.5795C12.7761 36.0296 13.2033 36.3803 13.7032 36.5874C14.2031 36.7944 14.7532 36.8484 15.2838 36.7426C15.8144 36.6367 16.3017 36.3758 16.6838 35.9927L22.0098 30.6666L29.9756 37.6767C30.4711 38.1166 31.1104 38.3599 31.7729 38.3607C32.0609 38.3603 32.3471 38.3149 32.6211 38.2261C33.0731 38.0828 33.4795 37.8235 33.8 37.474C34.1204 37.1245 34.3436 36.6972 34.4473 36.2345L41.7936 4.17731C41.9055 3.69232 41.8826 3.18596 41.7273 2.71307C41.572 2.24017 41.2904 1.81877 40.9128 1.4945L40.9126 1.4947ZM2.69303 17.7623C2.68037 17.6776 2.69815 17.5911 2.74321 17.5183C2.78826 17.4454 2.85768 17.3909 2.93912 17.3644L33.101 5.51501L12.9161 20.0929L3.00553 18.1107C2.92063 18.099 2.84264 18.0576 2.78542 17.9938C2.7282 17.93 2.69546 17.8479 2.69303 17.7623ZM15.0264 34.3357C14.9718 34.3903 14.9022 34.4275 14.8264 34.4426C14.7507 34.4576 14.6721 34.4499 14.6008 34.4204C14.5294 34.3908 14.4684 34.3407 14.4255 34.2765C14.3826 34.2123 14.3596 34.1368 14.3596 34.0595V23.9345L20.2469 29.1154L15.0264 34.3357ZM32.1628 35.7111C32.1477 35.7771 32.1157 35.838 32.07 35.8879C32.0243 35.9379 31.9664 35.975 31.9019 35.9958C31.8375 36.0166 31.7688 36.0203 31.7025 36.0066C31.6363 35.9928 31.5747 35.9621 31.5239 35.9174L15.0641 21.4328L39.4751 3.8027L32.1628 35.7111Z" fill="white"/>
</svg>
